<svg width="105" height="26" viewBox="0 0 105 26" fill="none" xmlns="http://www.w3.org/2000/svg">
<g clip-path="url(#clip0_21324_9780)">
<path d="M30 12.3672H23.6562L19.1833 0H12.1286L5.80828 17.4721H0.0209639L0 22.0456H4.15403L2.84029 25.679V26H8.77943L10.0722 22.0462H21.1329L22.4517 26H28.4703V25.679L25.6948 18.0041H30V12.3672ZM15.5559 5.29541L18.0938 13.5995L28.7746 13.6008V16.7706L11.8065 16.7578L15.5559 5.29605V5.29541Z" fill="#EF4444"/>
<path d="M93.3137 21.868V9.868H96.9377V11.092C97.6257 10.1 98.7377 9.604 100.274 9.604C101.73 9.604 102.866 10.092 103.682 11.068C104.514 12.044 104.93 13.332 104.93 14.932V21.868H101.306V15.556C101.306 13.78 100.658 12.892 99.3617 12.892C98.6417 12.892 98.0577 13.156 97.6097 13.684C97.1617 14.212 96.9377 14.996 96.9377 16.036V21.868H93.3137Z" fill="#FFFFFF"/>
<path d="M83.443 22.132C81.891 22.132 80.571 21.516 79.483 20.284C78.411 19.052 77.875 17.58 77.875 15.868C77.875 14.156 78.411 12.684 79.483 11.452C80.571 10.22 81.891 9.604 83.443 9.604C84.819 9.604 85.907 10.092 86.707 11.068V9.868H90.331V21.868H86.707V20.668C85.907 21.644 84.819 22.132 83.443 22.132ZM82.267 18.004C82.779 18.564 83.443 18.844 84.259 18.844C85.075 18.844 85.731 18.564 86.227 18.004C86.739 17.444 86.995 16.732 86.995 15.868C86.995 15.004 86.739 14.292 86.227 13.732C85.731 13.172 85.075 12.892 84.259 12.892C83.443 12.892 82.779 13.172 82.267 13.732C81.771 14.292 81.523 15.004 81.523 15.868C81.523 16.732 81.771 17.444 82.267 18.004Z" fill="#FFFFFF"/>
<path d="M64.1575 21.868V9.868H67.7815V11.092C68.4695 10.1 69.5815 9.604 71.1175 9.604C72.5735 9.604 73.7095 10.092 74.5255 11.068C75.3575 12.044 75.7735 13.332 75.7735 14.932V21.868H72.1495V15.556C72.1495 13.78 71.5015 12.892 70.2055 12.892C69.4855 12.892 68.9015 13.156 68.4535 13.684C68.0055 14.212 67.7815 14.996 67.7815 16.036V21.868H64.1575Z" fill="#FFFFFF"/>
<path d="M54.2867 22.132C52.7347 22.132 51.4147 21.516 50.3267 20.284C49.2547 19.052 48.7187 17.58 48.7187 15.868C48.7187 14.156 49.2547 12.684 50.3267 11.452C51.4147 10.22 52.7347 9.60404 54.2867 9.60404C55.6627 9.60404 56.7507 10.092 57.5507 11.068V3.86804H61.1747V21.868H57.5507V20.668C56.7507 21.644 55.6627 22.132 54.2867 22.132ZM53.1107 18.004C53.6227 18.564 54.2867 18.844 55.1027 18.844C55.9187 18.844 56.5747 18.564 57.0707 18.004C57.5827 17.444 57.8387 16.732 57.8387 15.868C57.8387 15.004 57.5827 14.292 57.0707 13.732C56.5747 13.172 55.9187 12.892 55.1027 12.892C54.2867 12.892 53.6227 13.172 53.1107 13.732C52.6147 14.292 52.3667 15.004 52.3667 15.868C52.3667 16.732 52.6147 17.444 53.1107 18.004Z" fill="#FFFFFF"/>
<path d="M39.568 22.132C38.016 22.132 36.696 21.516 35.608 20.284C34.536 19.052 34 17.58 34 15.868C34 14.156 34.536 12.684 35.608 11.452C36.696 10.22 38.016 9.604 39.568 9.604C40.944 9.604 42.032 10.092 42.832 11.068V9.868H46.456V21.868H42.832V20.668C42.032 21.644 40.944 22.132 39.568 22.132ZM38.392 18.004C38.904 18.564 39.568 18.844 40.384 18.844C41.2 18.844 41.856 18.564 42.352 18.004C42.864 17.444 43.12 16.732 43.12 15.868C43.12 15.004 42.864 14.292 42.352 13.732C41.856 13.172 41.2 12.892 40.384 12.892C39.568 12.892 38.904 13.172 38.392 13.732C37.896 14.292 37.648 15.004 37.648 15.868C37.648 16.732 37.896 17.444 38.392 18.004Z" fill="#FFFFFF"/>
</g>
<defs>
<clipPath id="clip0_21324_9780">
<rect width="104.93" height="26" fill="white"/>
</clipPath>
</defs>
</svg>
