<svg width="60" height="60" viewBox="0 0 60 60" fill="none" xmlns="http://www.w3.org/2000/svg">
<g clip-path="url(#clip0_21365_149)">
<path opacity="0.7" d="M31.6055 20.8348V1.95947H28.6753V20.8348C24.2603 21.5359 20.8758 25.3577 20.8758 29.9536C20.8758 34.5495 24.2603 38.3714 28.6753 39.0724V57.9478H31.6055V39.0724C36.0205 38.3714 39.405 34.5495 39.405 29.9536C39.405 25.3577 36.0205 21.5359 31.6055 20.8348ZM30.1404 36.2681C26.646 36.2681 23.8061 33.4371 23.8061 29.9536C23.8061 26.4702 26.646 23.6391 30.1404 23.6391C33.6348 23.6391 36.4747 26.4702 36.4747 29.9536C36.4747 33.4371 33.6348 36.2681 30.1404 36.2681Z" fill="white"/>
<path opacity="0.7" d="M51.888 41.0515V1.95947H48.9577V41.0515C44.5403 41.7526 41.1558 45.5744 41.1558 50.1727C41.1558 55.2652 45.312 59.4084 50.4229 59.4084C55.5338 59.4084 59.6874 55.2652 59.6874 50.1727C59.6874 45.5744 56.303 41.7526 51.888 41.0515ZM50.4229 56.4872C46.9285 56.4872 44.0861 53.6537 44.0861 50.1727C44.0861 46.6917 46.9285 43.8558 50.4229 43.8558C53.9172 43.8558 56.7572 46.6893 56.7572 50.1727C56.7572 53.6562 53.9148 56.4872 50.4229 56.4872Z" fill="white"/>
<path opacity="0.7" d="M9.85796 0.499023C4.7495 0.499023 0.593384 4.64216 0.593384 9.73466C0.593384 14.333 3.97786 18.1548 8.39282 18.8559V57.9479H11.3231V18.8559C15.7405 18.1548 19.125 14.333 19.125 9.73466C19.125 4.64216 14.9689 0.499023 9.85796 0.499023ZM9.85796 16.0516C6.36604 16.0516 3.52367 13.2181 3.52367 9.73466C3.52367 6.25121 6.36604 3.42015 9.85796 3.42015C13.3499 3.42015 16.1947 6.25365 16.1947 9.73466C16.1947 13.2157 13.3523 16.0516 9.85796 16.0516Z" fill="white"/>
</g>
<defs>
<clipPath id="clip0_21365_149">
<rect width="60" height="60" fill="white"/>
</clipPath>
</defs>
</svg>
