<svg width="60" height="60" viewBox="0 0 60 60" fill="none" xmlns="http://www.w3.org/2000/svg">
<g opacity="0.7" clip-path="url(#clip0_21365_99)">
<path opacity="0.7" d="M48.0685 20.2325C48.2011 19.3811 48.2674 18.5082 48.2674 17.6211C48.2674 8.13394 40.5814 0.41626 31.1362 0.41626C21.6909 0.41626 14.0049 8.13394 14.0049 17.6211C14.0049 18.5082 14.0712 19.3811 14.2038 20.2301C7.40103 22.511 2.48541 28.9681 2.48541 36.5574C2.48541 46.0445 10.169 53.7622 19.6143 53.7622C24.0469 53.7622 28.0911 52.0641 31.1362 49.2814C34.1812 52.0641 38.2254 53.7622 42.6557 53.7622C52.1009 53.7622 59.7869 46.0445 59.7869 36.5574C59.7869 28.9681 54.8689 22.511 48.0685 20.2325ZM31.1362 3.27026C39.0139 3.27026 45.426 9.7084 45.426 17.6211C45.426 18.2775 45.381 18.9221 45.2958 19.5547C44.4363 19.4191 43.5531 19.3502 42.6557 19.3502C38.2254 19.3502 34.1812 21.0507 31.1362 23.8333C28.0911 21.0507 24.0469 19.3502 19.6143 19.3502C18.7169 19.3502 17.8361 19.4191 16.9765 19.5547C16.8913 18.9221 16.8463 18.2775 16.8463 17.6211C16.8463 9.7084 23.256 3.27026 31.1362 3.27026ZM31.1362 45.0361C29.3958 42.6578 28.3682 39.7253 28.3682 36.5574C28.3682 35.901 28.4132 35.2564 28.4984 34.6238C29.3579 34.7594 30.2388 34.8283 31.1362 34.8283C32.0336 34.8283 32.9144 34.7594 33.7739 34.6238C33.8592 35.2564 33.9042 35.901 33.9042 36.5574C33.9042 39.7253 32.8765 42.6578 31.1362 45.0361ZM26.391 31.1586C22.3065 29.7125 19.0673 26.4495 17.6419 22.3421C18.2859 22.2517 18.9442 22.2041 19.6143 22.2041C23.301 22.2041 26.6657 23.6121 29.1993 25.9239C27.9798 27.4769 27.0209 29.244 26.391 31.1586ZM33.073 25.9215C35.609 23.6121 38.9713 22.2041 42.6557 22.2041C43.3257 22.2041 43.984 22.2517 44.6304 22.3421C43.2026 26.4495 39.9658 29.7125 35.8813 31.1586C35.2514 29.2416 34.2925 27.4745 33.073 25.9215ZM19.6143 50.9082C11.7365 50.9082 5.32681 44.4701 5.32681 36.5574C5.32681 30.3143 9.3166 24.9892 14.8692 23.0199C16.5645 28.1595 20.6112 32.2336 25.7233 33.946C25.5931 34.7974 25.5268 35.6703 25.5268 36.5574C25.5268 40.5696 26.9001 44.2608 29.1993 47.1909C26.6657 49.5002 23.301 50.9082 19.6143 50.9082ZM42.6557 50.9082C38.9713 50.9082 35.609 49.5002 33.073 47.1933C35.3722 44.2632 36.7455 40.5696 36.7455 36.5574C36.7455 35.6703 36.6792 34.7974 36.549 33.946C41.6612 32.2336 45.7078 28.1595 47.4031 23.0199C52.9557 24.9892 56.9455 30.3143 56.9455 36.5574C56.9455 44.4701 50.5358 50.9082 42.6557 50.9082Z" fill="white"/>
</g>
<defs>
<clipPath id="clip0_21365_99">
<rect width="58" height="54" fill="white" transform="translate(2)"/>
</clipPath>
</defs>
</svg>
