<svg width="58" height="46" viewBox="0 0 58 46" fill="none" xmlns="http://www.w3.org/2000/svg">
<g opacity="0.7" clip-path="url(#clip0_21365_54)">
<path d="M52.2537 38.9006H5.57355C2.62899 38.9006 0.32341 36.6001 0.32341 33.6619V5.47276C0.32341 2.53465 2.62899 0.234131 5.57355 0.234131H52.2537C55.1982 0.234131 57.5038 2.53465 57.5038 5.47276V33.6645C57.5038 36.6027 55.1982 38.9032 52.2537 38.9032V38.9006ZM5.57355 3.35701C4.34513 3.35701 3.45315 4.24703 3.45315 5.47276V33.6645C3.45315 34.8903 4.34513 35.7803 5.57355 35.7803H52.2537C53.4612 35.7803 54.3741 34.8695 54.3741 33.6645V5.47276C54.3741 4.26785 53.4612 3.35701 52.2537 3.35701H5.57355Z" fill="white"/>
<path d="M38.874 45.7685H18.7602C17.5292 45.7685 16.6033 44.842 16.6033 43.6163C16.6033 42.3906 17.5318 41.4641 18.7602 41.4641H39.0644C40.2954 41.4641 41.2213 42.3906 41.2213 43.6163C41.2213 44.842 40.1676 45.7685 38.874 45.7685Z" fill="white"/>
<path opacity="0.7" d="M24.9779 12.5279L33.6917 19.0027C34.0699 19.2838 34.0699 19.8511 33.6917 20.1321L24.9779 26.6069C24.5111 26.953 23.8512 26.6225 23.8512 26.0422V13.0927C23.8512 12.5123 24.5137 12.1818 24.9779 12.5279Z" fill="white"/>
</g>
<defs>
<clipPath id="clip0_21365_54">
<rect width="57.7255" height="46" fill="white"/>
</clipPath>
</defs>
</svg>
