<svg width="60" height="60" viewBox="0 0 60 60" fill="none" xmlns="http://www.w3.org/2000/svg">
<g opacity="0.7" clip-path="url(#clip0_21365_59)">
<path d="M36.3531 31.5374L46.7731 39.3433C47.2253 39.6821 47.2253 40.3661 46.7731 40.7049L36.3531 48.5108C35.7948 48.9281 35.0057 48.5296 35.0057 47.83V32.2182C35.0057 31.5186 35.7979 31.1201 36.3531 31.5374Z" fill="white"/>
<path d="M25.6555 59.6612C24.1959 59.6612 22.8236 59.0933 21.7912 58.0642C20.762 57.0383 20.1975 55.6735 20.1975 54.224V25.57C20.1975 24.1205 20.7652 22.7557 21.7912 21.7298C22.8236 20.7007 24.1959 20.1328 25.6555 20.1328H54.3487C55.8083 20.1328 57.1806 20.7007 58.2129 21.7298C59.2421 22.7557 59.8066 24.1205 59.8066 25.57V54.224C59.8066 55.6735 59.2421 57.0383 58.2129 58.0642C57.1806 59.0933 55.8083 59.6612 54.3487 59.6612H25.6555ZM23.9401 55.9496H56.064V23.8444H23.9401V55.9496ZM10.5728 50.0858V15.9915C10.5728 14.542 11.1405 13.1772 12.1665 12.1512C13.1989 11.1222 14.5712 10.5543 16.0308 10.5543H50.1819V14.2659H14.3154V50.0858H10.5728ZM0.315002 39.8703V5.77601C0.315002 4.32653 0.882629 2.96175 1.90872 1.93581C2.94105 0.90674 4.31334 0.338867 5.77295 0.338867H39.9241V4.05043H4.0576V39.8703H0.315002Z" fill="white"/>
</g>
<defs>
<clipPath id="clip0_21365_59">
<rect width="60" height="60" fill="white"/>
</clipPath>
</defs>
</svg>
