<svg width="127" height="127" viewBox="0 0 127 127" fill="none" xmlns="http://www.w3.org/2000/svg">
<path opacity="0.5" d="M118.333 63.167C118.333 32.6994 93.6346 8.00017 63.167 8C32.6993 8 8 32.6993 8 63.167C8.00017 93.6346 32.6994 118.333 63.167 118.333C93.6345 118.333 118.333 93.6345 118.333 63.167ZM49.4463 35.9736C50.7468 35.2777 52.3244 35.3538 53.5518 36.1719L89.0518 59.8389C90.1646 60.5807 90.833 61.8296 90.833 63.167C90.8329 64.5043 90.1645 65.7533 89.0518 66.4951L53.5518 90.1611C52.3245 90.9793 50.7468 91.0562 49.4463 90.3604C48.1457 89.6643 47.333 88.3082 47.333 86.833V39.5C47.333 38.0248 48.1457 36.6697 49.4463 35.9736ZM55.333 79.3584L79.6211 63.166L55.333 46.9736V79.3584ZM126.333 63.167C126.333 98.0527 98.0527 126.333 63.167 126.333C28.2811 126.333 0.000173176 98.0528 0 63.167C0 28.281 28.281 0 63.167 0C98.0528 0.000173199 126.333 28.2811 126.333 63.167Z" fill="white"/>
</svg>
