<svg width="47" height="60" viewBox="0 0 47 60" fill="none" xmlns="http://www.w3.org/2000/svg">
<g opacity="0.7">
<g opacity="0.7">
<path d="M13.7333 9.50844C12.8139 9.50844 12.1194 8.814 12.1194 7.89455C12.1194 6.97511 12.8278 6.30566 13.7333 6.30566H20.1806C21.0722 6.30566 21.7694 7.00289 21.7694 7.89455C21.7694 8.78622 21.0722 9.50844 20.1806 9.50844H13.7333Z" fill="white"/>
<path d="M7.06944 55.7056C3.00556 55.7056 0.377777 53.2028 0.377777 49.3306V6.77505C0.377777 2.90283 3.00278 0.402832 7.06944 0.402832H26.8167C30.8806 0.402832 33.5083 2.90283 33.5083 6.77505V28.5389C32.9917 28.4945 32.475 28.4695 31.9583 28.4695C31.4139 28.4695 30.8667 28.4945 30.3306 28.5445V7.46672C30.3306 5.03339 28.8167 3.58061 26.2833 3.58061H7.63056C5.08055 3.58061 3.55833 5.03339 3.55833 7.46672V48.6389C3.55833 51.0723 5.08055 52.5251 7.63056 52.5251H15.4056C15.8306 53.6362 16.3667 54.7001 17.0083 55.7056H7.06944Z" fill="white"/>
<path d="M34.0639 32.8416C33.3778 32.7333 32.675 32.6777 31.9583 32.6777C31.2417 32.6777 30.4861 32.7388 29.775 32.8583C23.3861 33.9194 18.4222 39.5472 18.4222 46.2138C18.4222 48.2722 18.8889 50.2222 19.7194 51.9694C20.4944 53.6055 21.5917 55.0638 22.925 56.2611C25.3306 58.4277 28.5056 59.75 31.9583 59.75C39.3139 59.75 45.525 53.6222 45.525 46.2138C45.525 39.4944 40.5167 33.8638 34.0639 32.8416ZM38.5417 47.3583L29.6667 52.5833C28.7083 53.1694 27.5889 52.7166 27.5889 51.5972V40.8055C27.5889 39.6861 28.7083 39.2333 29.6667 39.8194L38.3806 44.9611C39.4222 45.575 39.5 46.8 38.5417 47.3583Z" fill="white"/>
</g>
</g>
</svg>
