<svg width="60" height="60" viewBox="0 0 60 60" fill="none" xmlns="http://www.w3.org/2000/svg">
<g opacity="0.7" clip-path="url(#clip0_21365_124)">
<path opacity="0.7" d="M59.1895 49.97L34.7876 30L59.1895 10.0299C59.8466 9.49376 59.9463 8.52411 59.4094 7.86486C58.875 7.2056 57.9085 7.10556 57.2514 7.64425L32.3612 28.0145L22.1571 19.6622C23.6886 17.6331 24.5988 15.1038 24.5988 12.3642C24.5988 5.68187 19.181 0.243652 12.518 0.243652C5.85502 0.243652 0.437195 5.68187 0.437195 12.3642C0.437195 19.0466 5.85757 24.4848 12.518 24.4848C15.3407 24.4848 17.9409 23.5074 20.0017 21.8734L29.9348 30L20.0017 38.1265C17.9409 36.4925 15.3407 35.5151 12.518 35.5151C5.85757 35.5151 0.437195 40.9534 0.437195 47.6357C0.437195 54.318 5.85757 59.7563 12.518 59.7563C19.1784 59.7563 24.5988 54.318 24.5988 47.6357C24.5988 44.8961 23.6886 42.3668 22.1571 40.3377L32.3612 31.9854L57.2514 52.3557C57.5353 52.5891 57.8779 52.702 58.2205 52.702C58.6653 52.702 59.1077 52.5096 59.4094 52.1351C59.9463 51.4758 59.8466 50.5087 59.1895 49.97ZM12.518 21.4065C7.54761 21.4065 3.50533 17.351 3.50533 12.3642C3.50533 7.37747 7.54761 3.32189 12.518 3.32189C17.4884 3.32189 21.5306 7.37747 21.5306 12.3642C21.5306 17.351 17.4884 21.4065 12.518 21.4065ZM12.518 56.678C7.54761 56.678 3.50533 52.6224 3.50533 47.6357C3.50533 42.649 7.54761 38.5934 12.518 38.5934C17.4884 38.5934 21.5306 42.649 21.5306 47.6357C21.5306 52.6224 17.4884 56.678 12.518 56.678Z" fill="white"/>
</g>
<defs>
<clipPath id="clip0_21365_124">
<rect width="60" height="60" fill="white"/>
</clipPath>
</defs>
</svg>
